<?xml version="1.0" encoding="UTF-8" standalone="no"?>
<!-- Created with Inkscape (http://www.inkscape.org/) -->

<svg
   xmlns:dc="http://purl.org/dc/elements/1.1/"
   xmlns:cc="http://creativecommons.org/ns#"
   xmlns:rdf="http://www.w3.org/1999/02/22-rdf-syntax-ns#"
   xmlns:svg="http://www.w3.org/2000/svg"
   xmlns="http://www.w3.org/2000/svg"
   xmlns:sodipodi="http://sodipodi.sourceforge.net/DTD/sodipodi-0.dtd"
   xmlns:inkscape="http://www.inkscape.org/namespaces/inkscape"
   width="297mm"
   height="105mm"
   viewBox="0 0 1052.3622 372.04724"
   id="svg2"
   version="1.1"
   inkscape:version="0.91 r13725"
   sodipodi:docname="ab.svg">
  <defs
     id="defs4" />
  <sodipodi:namedview
     id="base"
     pagecolor="#ffffff"
     bordercolor="#666666"
     borderopacity="1.0"
     inkscape:pageopacity="0.0"
     inkscape:pageshadow="2"
     inkscape:zoom="1"
     inkscape:cx="717.47829"
     inkscape:cy="114.28571"
     inkscape:document-units="px"
     inkscape:current-layer="layer1"
     showgrid="false"
     height="105mm" />
  <metadata
     id="metadata7">
    <rdf:RDF>
      <cc:Work
         rdf:about="">
        <dc:format>image/svg+xml</dc:format>
        <dc:type
           rdf:resource="http://purl.org/dc/dcmitype/StillImage" />
        <dc:title></dc:title>
      </cc:Work>
    </rdf:RDF>
  </metadata>
  <g
     inkscape:label="Livello 1"
     inkscape:groupmode="layer"
     id="layer1"
     transform="translate(0,-680.31496)">
    <path
       style="fill:#000000"
       d="m 154.3315,966.22907 c -4.97588,-1.22974 -7.72963,-3.70024 -7.72963,-6.93466 0,-1.56336 0.28959,-2.17279 1.63575,-3.44242 2.37378,-2.23872 6.25853,-3.549 10.77851,-3.63542 2.06125,-0.0393 4.53824,0.0928 5.50444,0.29397 l 1.75673,0.36566 0,-8.68779 0,-8.68778 -14.99081,0 c -8.24494,0 -14.9908,-0.0584 -14.9908,-0.12959 0,-0.0713 6.30486,-14.66975 14.0108,-32.44103 7.70595,-17.77133 13.96655,-32.35757 13.91245,-32.41388 -0.0541,-0.0564 -6.99591,-2.55083 -15.42622,-5.54327 l -15.32785,-5.44087 -1.35259,1.44797 c -1.57153,1.68235 -4.84542,3.28923 -6.73162,3.30402 -3.56054,0.0281 -6.33401,-3.73604 -5.77234,-7.83386 1.27569,-9.30717 11.41406,-15.04468 15.34512,-8.6841 0.81852,1.3244 0.93871,2.09046 0.7407,4.72131 -0.13,1.72719 -0.3711,3.56201 -0.53576,4.07733 -0.27415,0.85789 0.97205,1.38388 14.77238,6.23547 8.28948,2.91426 15.23734,5.12775 15.43968,4.91886 0.4701,-0.48519 15.89768,-36.10491 15.89768,-36.70506 0,-0.24693 -0.70412,-0.44897 -1.56469,-0.44897 -2.65607,0 -8.62815,-1.7632 -12.03401,-3.55293 -6.78945,-3.56776 -12.85558,-10.77677 -15.28891,-18.16944 -1.06372,-3.23169 -1.25935,-4.6607 -1.29098,-9.43041 -0.0205,-3.09186 0.12144,-6.33602 0.31541,-7.20926 l 0.35268,-1.58772 -1.23637,1.23637 c -1.45083,1.45083 -3.73308,1.65429 -4.67265,0.41655 -0.34228,-0.45089 -0.62903,-1.61034 -0.63722,-2.57654 -0.008,-0.9662 -0.20456,-1.75673 -0.43636,-1.75673 -0.7833,0 -5.12465,5.13883 -7.32834,8.67451 -3.56982,5.72753 -8.77406,19.09213 -12.18414,31.28909 -0.69494,2.48564 -0.86446,2.70833 -1.96122,2.57655 -1.48529,-0.17849 -1.50708,-0.46329 -0.99652,-13.027 0.79263,-19.50473 3.95626,-32.15168 9.40599,-37.6014 4.08806,-4.08807 9.17259,-3.92036 13.99836,0.46174 l 1.21536,1.10362 1.89165,-1.89164 c 2.44759,-2.4476 3.98417,-2.49646 5.21098,-0.16571 0.29622,0.56278 0.53859,1.71079 0.53859,2.55115 l 0,1.52788 1.33165,-2.08267 c 7.08991,-11.08852 21.21227,-16.77946 33.80853,-13.62395 2.18706,0.54788 5.47646,1.73253 7.30978,2.63255 3.77399,1.85275 9.26774,6.66062 11.64586,10.19193 l 1.53717,2.28257 0.30623,-1.63234 c 0.16843,-0.8978 0.68555,-2.1008 1.14917,-2.67333 1.11103,-1.37209 2.99655,-0.93001 4.97336,1.16601 l 1.44607,1.53328 2.05027,-1.57396 c 2.84443,-2.18359 6.40139,-3.17374 8.94285,-2.4894 4.05774,1.09264 7.62402,5.86962 9.96434,13.34706 2.3956,7.65399 4.06104,21.69543 4.07008,34.3149 l 0.004,5.73867 -1.35327,0 c -1.18788,0 -1.39269,-0.21032 -1.67613,-1.72116 -0.57191,-3.0485 -5.66739,-18.03128 -7.92533,-23.30367 -1.20483,-2.81335 -2.95784,-6.39709 -3.89556,-7.96387 -2.02936,-3.39074 -5.85033,-8.24795 -7.09878,-9.02395 -0.81107,-0.50414 -0.91426,-0.37877 -1.15293,1.40059 -0.46698,3.48162 -2.91221,4.26707 -5.64773,1.81415 -0.84632,-0.75888 -0.86787,-0.7198 -0.59897,1.08666 0.76754,5.15636 0.81184,6.39969 0.34706,9.74128 -1.34351,9.65948 -6.63127,18.14575 -14.40511,23.11863 -3.48774,2.23108 -9.44678,4.36666 -13.14935,4.71241 -2.48163,0.23173 -2.93686,0.40528 -2.69846,1.02866 1.50378,3.93183 15.89591,36.5873 16.125,36.5873 0.16597,0 7.0394,-2.39243 15.27429,-5.31654 11.00956,-3.90933 14.92218,-5.49024 14.78226,-5.9729 -1.3642,-4.70611 -1.15894,-7.54576 0.70563,-9.76168 2.39053,-2.84097 6.72796,-2.33546 10.53775,1.22815 3.93168,3.67764 5.38722,9.91718 3.10384,13.30548 -2.52982,3.75404 -6.68889,3.66502 -11.00628,-0.23549 l -1.87168,-1.69097 -15.0669,5.33724 c -8.28679,2.93549 -15.18027,5.45058 -15.31882,5.58914 -0.13856,0.13857 5.90621,14.44599 13.43282,31.79424 7.52661,17.34831 13.78799,31.91125 13.91416,32.36218 0.21506,0.76847 -0.71195,0.81979 -14.81604,0.81979 l -15.04544,0 0,8.6755 0,8.67544 1.28828,-0.36027 c 0.70854,-0.19813 3.40667,-0.35731 5.99584,-0.35382 4.38274,0.006 4.9266,0.11429 7.88206,1.56925 5.43505,2.67566 6.41449,6.11929 2.69218,9.4654 -4.95957,4.45834 -16.15441,4.67089 -22.02514,0.41815 -3.35627,-2.43131 -3.3571,-5.70847 -0.003,-8.58016 l 1.82682,-1.56356 0,-8.97297 0,-8.97296 -13.81965,0 -13.81966,0 0,8.9508 0,8.95075 2.34231,2.19907 c 2.64083,2.47931 2.96884,3.92889 1.4519,6.41655 -2.40777,3.94857 -11.02472,5.95535 -18.08233,4.21127 z m 12.2256,-2.50703 c 2.06513,-1.07227 3.46792,-2.8026 3.46792,-4.27744 0,-1.47175 -2.189,-3.66334 -4.58085,-4.58631 -2.62991,-1.01467 -8.37622,-1.13339 -10.97908,-0.22674 -5.99083,2.08693 -6.05666,7.40315 -0.11964,9.66198 2.77901,1.05734 9.69837,0.73354 12.21165,-0.57149 z m 44.5962,0.10447 c 2.04621,-0.81875 4.3126,-3.05713 4.3126,-4.25933 0,-3.02598 -3.74602,-5.40158 -8.99706,-5.70552 -4.42312,-0.25598 -7.43162,0.49175 -9.5851,2.38251 -2.52443,2.21648 -1.94779,5.4768 1.26225,7.13678 3.40291,1.7597 9.22452,1.95916 13.00731,0.44556 z m 13.56741,-31.99216 c -0.27981,-1.07001 -41.63731,-96.70104 -42.00953,-97.13874 -0.14954,-0.17586 -6.26771,13.52668 -13.59591,30.45007 -7.32821,16.9234 -16.86728,38.94686 -21.19795,48.94095 -4.33066,9.99416 -7.87393,18.26838 -7.87393,18.38717 0,0.11884 19.10273,0.21608 42.45052,0.21608 40.8732,0 42.44221,-0.0319 42.2268,-0.85553 z m -96.71787,-70.51531 c 4.82058,-2.01416 7.19832,-9.9505 3.84529,-12.83465 -1.45717,-1.25341 -2.57843,-1.32147 -4.7549,-0.28868 -2.58677,1.22751 -4.55144,4.5201 -4.77296,7.999 -0.17398,2.73236 -0.0978,2.99924 1.23742,4.33445 1.58921,1.58921 2.25077,1.70675 4.44515,0.78988 z m 112.7443,-0.0616 c 4.3097,-2.22867 1.78482,-11.61595 -3.60254,-13.39395 -2.65776,-0.87714 -4.43627,0.24971 -5.47384,3.46818 -0.87257,2.70667 1.85472,8.17456 4.86865,9.76106 1.97551,1.03989 2.47728,1.05952 4.20773,0.16471 z M 189.8897,827.2972 c 5.29696,-1.35474 8.86039,-3.44232 13.21041,-7.73911 6.44067,-6.36187 8.90078,-12.80497 8.49244,-22.24193 -0.27935,-6.45607 -1.27986,-9.69993 -4.52492,-14.67086 -10.1986,-15.62269 -32.01942,-17.90893 -45.19331,-4.73503 -11.51243,11.51243 -11.57222,30.02253 -0.13423,41.55765 3.7599,3.79185 9.05298,6.8778 13.74551,8.01388 4.06476,0.9841 10.1389,0.90625 14.4041,-0.1846 z m 50.35803,-13.36335 c -0.975,-15.5865 -3.52638,-25.97846 -7.73174,-31.49197 -2.98471,-3.91317 -7.62878,-3.92219 -11.7401,-0.0228 l -1.48273,1.40629 2.70592,2.25188 c 6.39842,5.32483 11.54784,14.63925 16.89516,30.56048 0.84549,2.51738 1.59478,4.51953 1.6651,4.44922 0.0703,-0.0704 -0.0699,-3.2892 -0.31161,-7.15307 z m -111.80553,-3.5128 c 4.39464,-11.85723 8.03346,-18.01712 13.92806,-23.57779 3.79953,-3.58428 3.79979,-3.62326 0.0409,-6.01538 -2.48014,-1.57833 -5.646,-1.78327 -7.60354,-0.49225 -5.34097,3.52243 -9.2618,17.10966 -9.98235,34.59275 -0.24679,5.98794 -0.24296,6.0173 0.51219,3.92499 0.41847,-1.15944 1.81562,-4.954 3.1048,-8.43232 z"
       id="path4330"
       inkscape:connector-curvature="0" />
    <path
       style="fill:#000000"
       d="m 832.74295,965.66811 c -11.49776,-3.08968 -10.66517,-11.81673 1.35293,-14.18116 2.86921,-0.56444 8.01233,-0.41483 9.83927,0.28621 0.77728,0.29822 0.83693,-0.35193 0.83693,-9.12221 l 0,-9.44336 -5.29796,0 -5.29795,0 0,-21.1841 0,-21.18412 13.12448,-0.12814 13.12449,-0.12815 0.12897,-11.67959 c 0.10298,-9.3258 0.003,-11.67959 -0.49689,-11.67959 -0.34422,0 -7.6466,-2.49245 -16.22751,-5.53877 -8.58092,-3.04633 -15.86231,-5.53878 -16.18087,-5.53878 -0.31858,0 -0.87667,0.36212 -1.24023,0.80471 -1.57463,1.91692 -4.91296,3.52998 -7.30551,3.52998 -2.03305,0 -2.58482,-0.22277 -3.9616,-1.59956 -6.08831,-6.08831 2.60179,-20.20633 10.77811,-17.51022 3.38403,1.11587 4.94627,5.91314 3.38455,10.39311 -0.29554,0.84775 -0.41557,1.66312 -0.26676,1.81193 0.22624,0.22623 27.17072,9.89613 30.54489,10.96202 l 1.08366,0.34234 0,-16.38615 0,-16.38613 -1.80611,-0.28171 c -14.29299,-2.22925 -24.24371,-10.20213 -28.34302,-22.7094 -1.24954,-3.81244 -1.3952,-4.90334 -1.37338,-10.28519 0.0214,-5.29446 0.18545,-6.48503 1.35992,-9.87348 1.9993,-5.76817 3.88102,-8.72094 8.44853,-13.25732 4.51098,-4.48025 8.62078,-6.88554 14.48958,-8.48011 4.21528,-1.14531 12.16023,-1.14531 16.37551,0 11.7224,3.18503 21.07127,12.88913 23.63091,24.5288 0.33761,1.53526 0.74786,2.87421 0.91167,2.97544 0.1638,0.10124 5.70802,1.17774 12.32048,2.39222 15.56128,2.85806 14.18999,2.48205 14.18999,3.89096 0,0.6572 -0.14311,1.19492 -0.31803,1.19492 -0.39178,0 -23.58504,-4.23871 -25.08809,-4.58501 -1.00191,-0.23084 -1.08368,-0.084 -1.08368,1.94715 0,4.09039 -1.40997,9.49459 -3.7013,14.18657 -1.82616,3.7394 -2.93544,5.27112 -6.13326,8.46893 -5.48563,5.48563 -11.19996,8.21005 -20.14706,9.60552 l -1.80612,0.28171 0,16.35367 c 0,8.99453 0.0854,16.35368 0.18983,16.35368 0.45256,0 31.22165,-11.02237 31.47426,-11.27498 0.15408,-0.15407 0.0282,-0.83307 -0.27974,-1.5089 -0.30793,-0.67583 -0.55987,-2.48694 -0.55987,-4.02469 0,-10.40488 12.605,-8.65797 16.14576,2.23762 1.77247,5.45402 -0.69435,10.23626 -5.28005,10.23626 -2.50536,0 -5.21644,-1.19839 -6.97619,-3.08374 -0.64221,-0.68802 -1.43117,-1.25095 -1.75327,-1.25095 -0.3221,0 -7.6166,2.49245 -16.21001,5.53878 -8.59341,3.04632 -15.87779,5.53877 -16.18754,5.53877 -0.4145,0 -0.56318,3.11539 -0.56318,11.8 l 0,11.79999 13.00407,0 13.00409,0 0,21.17557 0,21.17551 -5.17756,0.13673 -5.17755,0.13666 -0.13066,8.91026 -0.13068,8.91019 6.3919,3e-4 c 5.69683,2.5e-4 6.66724,0.12465 8.92397,1.14451 7.11597,3.21555 7.11597,9.00571 0,12.12518 -3.53092,1.54782 -10.32573,1.86498 -14.68354,0.68541 -4.26483,-1.1545 -7.35465,-3.98226 -7.35465,-6.73093 0,-1.5648 0.33491,-2.17172 2.16734,-3.9275 l 2.16734,-2.07669 0,-9.62496 0,-9.62502 -5.38652,-0.13618 -5.38651,-0.13617 -1.36341,-6.50205 c -0.74988,-3.57611 -1.49282,-6.82713 -1.65099,-7.22449 -0.15814,-0.39734 -0.90835,2.09511 -1.6671,5.53878 -0.75875,3.4437 -1.49723,6.74889 -1.64107,7.34491 -0.25143,1.04181 -0.46492,1.08368 -5.53135,1.08368 l -5.26982,0 -0.13936,9.92392 -0.13937,9.92398 1.34578,0.69533 c 1.57809,0.81539 3.22537,3.30918 3.22792,4.88673 0.009,5.50469 -10.56305,9.36543 -19.25181,7.03056 z m 10.47066,-1.88773 c 5.04515,-1.49828 6.87428,-5.21996 3.92125,-7.9785 -5.33258,-4.98133 -19.21992,-2.85509 -19.21992,2.94272 0,4.3161 8.40536,7.08286 15.29867,5.03578 z m 47.04365,-0.30422 c 2.35967,-0.61392 5.08625,-3.23947 5.08625,-4.89777 0,-3.27779 -4.76952,-5.79323 -10.86492,-5.73007 -9.43638,0.0978 -13.23702,6.50744 -6.05403,10.20993 2.71127,1.39754 7.42729,1.56413 11.8327,0.41791 z M 856.8129,930.58633 c 0,-0.11716 0.765,-3.73542 1.70001,-8.04056 0.93502,-4.30512 1.77142,-8.48974 1.85868,-9.29917 0.10812,-1.00281 0.44883,-1.51512 1.06938,-1.60798 0.79941,-0.11969 1.07644,0.64544 2.26694,6.26122 0.74592,3.51862 1.68442,7.86047 2.08554,9.64855 l 0.72931,3.251 10.07567,0 10.07569,0 0,-18.78365 0,-18.78368 -25.0449,0 -25.04489,0 0,18.78368 0,18.78365 10.11428,0 c 5.56286,0 10.11429,-0.0959 10.11429,-0.21306 z M 822.92561,857.0677 c 3.92024,-2.42283 5.70004,-9.42879 3.09925,-12.19976 -0.8574,-0.91351 -1.65272,-1.24403 -2.99344,-1.24403 -5.28077,0 -9.61606,9.62584 -5.9751,13.26678 1.47695,1.47695 3.65945,1.54277 5.86929,0.17701 z m 82.26978,0.706 c 2.14723,-0.82397 2.83491,-5.72513 1.27582,-9.09266 -1.34142,-2.89733 -3.44919,-4.64265 -5.94671,-4.92416 -1.92332,-0.21679 -2.23469,-0.0984 -3.40804,1.29607 -4.03193,4.79168 2.3902,14.90372 8.07893,12.72075 z m -33.27807,-30.20705 c 11.35267,-4.39259 18.67916,-14.14869 19.81563,-26.38689 0.23814,-2.56434 0.17525,-3.77521 -0.20838,-4.01231 -0.49982,-0.30889 -53.11265,-10.0928 -56.24881,-10.46004 -1.25777,-0.14729 -1.40521,0.036 -2.39136,2.97364 -4.69944,13.99898 2.08108,30.01512 15.49993,36.61207 4.8494,2.38405 7.50677,2.8914 14.20816,2.71266 5.12386,-0.13667 6.51249,-0.35098 9.32483,-1.43913 z m 19.03895,-35.78007 c -2.11065,-8.57461 -8.12604,-16.0229 -16.05002,-19.87324 -4.97517,-2.41747 -8.13295,-3.14049 -13.51785,-3.09508 -5.48219,0.0462 -8.1356,0.67301 -13.20773,3.11996 -3.17544,1.53194 -4.84951,2.75621 -7.70613,5.63567 -3.30247,3.32889 -5.34509,6.07753 -4.81407,6.47802 0.28624,0.21589 55.55924,10.32223 55.73126,10.19013 0.0782,-0.06 -0.11781,-1.16497 -0.43546,-2.45546 z"
       id="path4326"
       inkscape:connector-curvature="0" />
    <path
       style="fill:#000000"
       d="m 922.437,929.60484 c -8.10396,-1.0123 -16.95588,-5.5269 -22.53905,-11.4954 -13.85388,-14.8099 -13.75092,-37.8027 0.23371,-52.1955 7.40605,-7.6223 16.7669,-11.6018 27.30064,-11.606 1.82658,-9e-4 4.2921,0.1677 5.47893,0.3744 l 2.15788,0.3758 25.15969,-25.1159 c 27.66608,-27.6178 25.55006,-25.7749 30.85212,-26.8704 3.99601,-0.8257 9.82898,0.3784 13.94478,2.8786 3.8965,2.3671 7.3789,6.7578 8.8733,11.1879 0.9579,2.8395 0.8844,10.0459 -0.1355,13.2898 -0.4163,1.3239 -0.9921,2.6424 -1.2796,2.9299 -0.4314,0.4314 -1.4846,0.5228 -6.0239,0.5228 l -5.5011,0 0,5.9527 c 0,4.8458 -0.097,6.0912 -0.5212,6.697 -0.50574,0.722 -0.70036,0.7442 -6.52956,0.7442 l -6.00828,0 0,5.4396 0,5.4395 -11.93659,11.9401 -11.9366,11.94 0.55175,3.3119 c 2.14537,12.8777 -1.89484,25.1884 -11.17688,34.0563 -8.35291,7.9804 -19.45915,11.6398 -30.96454,10.2027 z m 13.22651,-4.6207 c 6.05523,-1.5701 12.98078,-5.7478 16.86791,-10.1754 5.68026,-6.4698 8.60125,-14.1494 8.60366,-22.6197 0.002,-5.7577 -1.08137,-10.5651 -3.43478,-15.2464 -6.25701,-12.4463 -19.84528,-20.0049 -33.4357,-18.5989 -3.77903,0.391 -5.32748,0.7423 -8.70502,1.975 -10.47737,3.8237 -18.24899,12.4991 -21.12725,23.5839 -0.90043,3.4679 -1.19932,9.6636 -0.63584,13.1807 2.31975,14.4792 13.187,25.6714 27.58043,28.4054 3.57135,0.6782 10.69523,0.4267 14.28659,-0.5046 z m -20.18549,-8.7431 c -2.84787,-0.7115 -5.46139,-2.799 -6.87483,-5.4913 -0.75909,-1.4459 -0.89081,-2.1145 -0.89482,-4.5417 -0.006,-3.3327 0.70908,-5.1554 2.8672,-7.3135 2.10735,-2.1074 4.01958,-2.8776 7.17355,-2.8894 2.26976,-0.01 2.97096,0.1335 4.59227,0.9297 6.08527,2.9882 7.6216,10.9144 3.14209,16.2105 -1.9685,2.3274 -6.93265,3.8633 -10.00546,3.0957 z m 5.36854,-4.3811 c 4.06145,-1.9662 4.62961,-8.0515 1.00755,-10.7917 -6.0673,-4.5902 -13.66879,3.0084 -9.07888,9.0755 1.79118,2.3676 5.21973,3.0966 8.07133,1.7162 z m 63.03511,-61.2942 0,-5.9212 0.88228,-0.694 c 0.81337,-0.6398 1.32339,-0.694 6.52955,-0.694 l 5.64726,0 0,-5.9633 c 0,-4.6164 0.10717,-6.11 0.47448,-6.6132 0.43028,-0.5894 1.03065,-0.6656 6.44416,-0.8174 l 5.9696,-0.1674 0.3881,-1.6743 c 0.6437,-2.7764 0.5433,-7.1695 -0.2204,-9.6418 -2.6546,-8.5949 -12.61578,-13.7045 -20.75787,-10.6479 -1.70253,0.6391 -3.64211,2.4925 -25.74494,24.6007 -21.81046,21.8158 -23.83372,23.9314 -23.10454,24.1588 0.43954,0.1371 1.75786,0.7001 2.9296,1.2511 l 2.13044,1.0018 18.46979,-18.4587 c 19.29315,-19.2815 19.22914,-19.2262 20.68954,-17.9045 1.5297,1.3844 1.6025,1.2995 -17.49872,20.4031 l -18.11108,18.1134 2.66286,2.221 c 3.88259,3.2384 7.20036,7.471 9.60368,12.2519 l 1.24629,2.4793 10.68496,-10.6811 10.68496,-10.681 0,-5.9213 z"
       id="path4328"
       inkscape:connector-curvature="0" />
    <rect
       style="fill:none;fill-opacity:1;fill-rule:nonzero;stroke:#000000;stroke-width:5;stroke-linecap:round;stroke-linejoin:bevel;stroke-miterlimit:4;stroke-dasharray:none;stroke-dashoffset:0;stroke-opacity:1"
       id="rect4391"
       width="298.74316"
       height="298.74316"
       x="33.12841"
       y="717.4906" />
    <rect
       style="fill:none;fill-opacity:1;fill-rule:nonzero;stroke:#000000;stroke-width:5;stroke-linecap:round;stroke-linejoin:bevel;stroke-miterlimit:4;stroke-dasharray:none;stroke-dashoffset:0;stroke-opacity:1"
       id="rect4391-8"
       width="298.74316"
       height="298.74316"
       x="717.62842"
       y="716.9906" />
    <g
       id="g4416"
       transform="translate(480,56)">
      <rect
         y="794.49719"
         x="257"
         height="60"
         width="60"
         id="rect4410"
         style="fill:#59aaa3;fill-opacity:1;fill-rule:nonzero;stroke:#000000;stroke-width:5;stroke-linecap:round;stroke-linejoin:bevel;stroke-miterlimit:4;stroke-dasharray:none;stroke-dashoffset:0;stroke-opacity:1" />
      <text
         sodipodi:linespacing="125%"
         id="text4412"
         y="840.11218"
         x="267.98749"
         style="font-style:normal;font-weight:normal;font-size:12px;line-height:125%;font-family:Sans;letter-spacing:0px;word-spacing:0px;fill:#000000;fill-opacity:1;stroke:none;stroke-width:1px;stroke-linecap:butt;stroke-linejoin:miter;stroke-opacity:1"
         xml:space="preserve"><tspan
           style="font-style:normal;font-variant:normal;font-weight:normal;font-stretch:normal;font-size:45px;font-family:Cantarell;-inkscape-font-specification:Cantarell"
           y="840.11218"
           x="267.98749"
           id="tspan4414"
           sodipodi:role="line">M</tspan></text>
    </g>
    <path
       style="fill:#000000"
       d="m 748.66018,821.73597 c -1.73116,-0.36703 -3.20869,-1.41606 -4.23834,-3.00909 l -0.57487,-0.88948 0,-15.30648 c 0,-8.41861 0.0412,-15.41387 0.0915,-15.5451 0.19378,-0.50498 3.36353,-1.13539 5.72466,-1.13856 0.51029,-3.3e-4 1.01793,-0.036 1.1281,-0.078 0.16334,-0.0626 0.19166,-1.20201 0.15343,-6.17164 -0.0524,-6.80546 -0.0599,-6.73859 1.01721,-9.01849 2.13865,-4.52681 6.10217,-7.39506 11.66439,-8.44112 1.96496,-0.36951 5.84648,-0.37071 7.85695,-0.005 6.73984,1.23475 11.6623,4.76289 12.83685,9.2007 0.29273,1.10611 0.3234,1.71496 0.39896,7.92179 l 0.0819,6.72362 0.46806,0.0987 c 1.56882,0.33102 3.50214,1.95041 4.32581,3.62336 l 0.50424,1.02417 0.0404,15.21907 c 0.0351,13.22297 0.0114,15.24802 -0.1806,15.44003 -0.18777,0.18778 -1.65257,0.23453 -9.74204,0.31119 -21.77376,0.20627 -30.71113,0.21692 -31.55657,0.0374 z m 21.80992,-1.45187 c 9.22408,-0.005 17.09257,-0.0437 17.48552,-0.0931 l 0.71447,-0.0895 0,-13.81415 0,-13.81411 -18.83925,-0.005 -18.83925,-0.005 0.0344,13.04877 c 0.0189,7.1768 0.076,13.48054 0.12688,14.00832 l 0.0924,0.9596 1.22684,-0.0962 c 0.67476,-0.0529 8.77382,-0.0979 17.99791,-0.0998 z m -1.85808,-2.66323 c -6.62603,-0.0384 -7.04121,-0.0563 -6.94494,-0.30237 1.36373,-3.48551 5.04331,-13.16646 5.01135,-13.18471 -1.20358,-0.68767 -1.96814,-1.65078 -2.48079,-3.12487 -0.31611,-0.90896 -0.36908,-1.28817 -0.31367,-2.24542 0.15161,-2.61908 1.90679,-4.40014 4.96437,-5.0377 0.98719,-0.20583 1.13831,-0.20021 2.26342,0.0843 1.43315,0.36241 2.26516,0.82069 3.03305,1.67066 1.44439,1.59874 1.61792,4.0274 0.4578,6.40709 -0.47519,0.97472 -1.2395,1.87072 -1.7374,2.03666 -0.13311,0.0442 0.59068,2.06836 2.38637,6.67317 1.41758,3.63523 2.62106,6.72793 2.6744,6.87271 0.0878,0.23842 -0.0147,0.25983 -1.08484,0.22714 -0.64998,-0.0202 -4.35309,-0.0543 -8.22912,-0.0767 z m -19.03398,-6.5054 c -0.0329,-5.00501 -0.1006,-11.32435 -0.15041,-14.04303 l -0.0906,-4.94308 -1.17599,-0.33894 c -0.67486,-0.19451 -1.50813,-0.57046 -1.95538,-0.88213 l -0.77937,-0.54329 -0.0384,13.55029 -0.0384,13.55029 0.52658,0.71729 c 0.87954,1.19822 2.39717,2.14736 3.31056,2.07056 l 0.45125,-0.0379 -0.0598,-9.09999 z m 7.43008,-20.01503 c -4.13119,-0.18476 -4.41305,-0.25451 -5.38858,-1.33436 -0.51998,-0.57554 -0.55274,-0.67111 -0.55274,-1.61223 l 0,-1.00041 -2.06818,0.10724 c -2.84376,0.14741 -3.25901,0.23151 -3.32175,0.67241 -0.0376,0.26434 0.15245,0.54957 0.75534,1.13356 1.63561,1.5842 4.44536,2.15547 10.57591,2.15024 l 2.55703,0 -2.55703,-0.11434 z m 31.17312,-0.0768 c 0.18669,-0.0544 0.33844,-0.21826 0.33844,-0.36534 0,-0.62599 -1.90383,-2.74037 -2.96078,-3.28822 -0.40635,-0.21063 -0.69806,-0.22076 -0.57393,-0.0202 0.0511,0.0827 0.0213,0.15044 -0.0663,0.15044 -0.0954,0 -0.15928,0.38382 -0.15928,0.9574 0,1.59375 -0.37005,1.86698 -3.07743,2.27235 -1.72156,0.25777 -2.31978,0.16249 -3.32602,-0.52979 -0.62504,-0.4301 -0.62561,-0.43135 -0.69855,-1.56784 -0.0401,-0.62561 -0.10183,-1.1663 -0.13708,-1.20148 -0.0352,-0.035 -4.44492,-0.11247 -9.79927,-0.17156 l -9.7352,-0.10748 -0.002,1.11427 c -0.003,1.27233 -0.17968,1.72355 -0.85551,2.17894 l -0.47731,0.32171 1.14145,0.0964 c 0.62781,0.0531 5.54775,0.10872 10.93323,0.12365 5.38546,0.0149 9.28411,0.0756 8.66366,0.13503 -0.62046,0.0594 1.47781,0.0836 4.66281,0.0539 3.18499,-0.0298 5.9432,-0.0984 6.12933,-0.1526 z m -10.56323,-11.38209 -0.003,-6.20457 -0.50625,-0.9334 c -0.60455,-1.11469 -1.93454,-2.48467 -3.08981,-3.18271 -3.35919,-2.02966 -8.55849,-2.1896 -12.37071,-0.38056 -1.38667,0.65806 -2.90149,2.03595 -3.43333,3.123 l -0.38253,0.78185 0.0393,6.38765 0.0393,6.38765 6.46776,0.0776 c 3.55727,0.0427 7.99217,0.0935 9.85535,0.11281 l 3.38759,0.035 -0.003,-6.20457 z m 5.6428,-4.55 c -0.25092,-4.21144 -0.54086,-5.09894 -2.22274,-6.80401 -2.18875,-2.21889 -5.39613,-3.82104 -9.23122,-4.6112 -1.67831,-0.34576 -4.60187,-0.57401 -5.3979,-0.42136 l -0.67687,0.12979 0.67687,0.18102 c 4.17892,1.11753 7.92851,2.9921 10.32002,5.15938 3.26874,2.96224 4.73417,5.84523 5.93318,11.67255 0.60921,2.9608 0.66309,2.96335 0.71412,0.0336 0.0252,-1.44773 -0.0268,-3.85056 -0.11546,-5.33967 z"
       id="path4332"
       inkscape:connector-curvature="0" />
    <text
       xml:space="preserve"
       style="font-style:normal;font-weight:normal;font-size:12px;line-height:125%;font-family:Sans;letter-spacing:0px;word-spacing:0px;fill:#000000;fill-opacity:1;stroke:none;stroke-width:1px;stroke-linecap:butt;stroke-linejoin:miter;stroke-opacity:1"
       x="144.17686"
       y="986.36218"
       id="text4440"
       sodipodi:linespacing="125%"><tspan
         sodipodi:role="line"
         id="tspan4442"
         x="144.17686"
         y="986.36218"
         style="font-style:normal;font-variant:normal;font-weight:normal;font-stretch:normal;font-size:30px;font-family:Cantarell;-inkscape-font-specification:Cantarell">ALICE</tspan></text>
    <text
       xml:space="preserve"
       style="font-style:normal;font-weight:normal;font-size:12px;line-height:125%;font-family:Sans;letter-spacing:0px;word-spacing:0px;fill:#000000;fill-opacity:1;stroke:none;stroke-width:1px;stroke-linecap:butt;stroke-linejoin:miter;stroke-opacity:1"
       x="836.23993"
       y="992.84723"
       id="text4440-6"
       sodipodi:linespacing="125%"><tspan
         sodipodi:role="line"
         id="tspan4442-8"
         x="836.23993"
         y="992.84723"
         style="font-style:normal;font-variant:normal;font-weight:normal;font-stretch:normal;font-size:30px;font-family:Cantarell;-inkscape-font-specification:Cantarell">BOB</tspan></text>
  </g>
</svg>
